HIERARCHY
ROOT RootJoint
{
    OFFSET   0.000000   0.000000   0.000000
    CHANNELS 6 Xposition Yposition Zposition Xrotation Yrotation Zrotation
    JOINT pelvis_lowerback
    {
        OFFSET   0.000000   0.093605   0.000000
        CHANNELS 3 Xrotation Yrotation Zrotation
        JOINT lowerback_torso
        {
            OFFSET   0.000000   0.100000   0.000000
            CHANNELS 3 Xrotation Yrotation Zrotation
            JOINT torso_head
            {
                OFFSET   0.000000   0.282350   0.000000
                CHANNELS 3 Xrotation Yrotation Zrotation
                End Site
                {
                    OFFSET   0.000000   0.192650   0.000000
                }
            }
            JOINT rTorso_Clavicle
            {
                OFFSET  -0.001000   0.157500   0.000000
                CHANNELS 3 Xrotation Yrotation Zrotation
                JOINT rShoulder
                {
                    OFFSET  -0.117647   0.000000   0.000000
                    CHANNELS 3 Xrotation Yrotation Zrotation
                    JOINT rElbow
                    {
                        OFFSET  -0.245000   0.000000   0.000000
                        CHANNELS 3 Xrotation Yrotation Zrotation
                        JOINT rWrist
                        {
                            OFFSET  -0.240000   0.000000   0.000000
                            CHANNELS 3 Xrotation Yrotation Zrotation
                            End Site
                            {
                                OFFSET  -0.116353  -0.002500   0.000000
                            }
                        }
                    }
                }
            }
            JOINT lTorso_Clavicle
            {
                OFFSET   0.001000   0.157500   0.000000
                CHANNELS 3 Xrotation Yrotation Zrotation
                JOINT lShoulder
                {
                    OFFSET   0.117647   0.000000   0.000000
                    CHANNELS 3 Xrotation Yrotation Zrotation
                    JOINT lElbow
                    {
                        OFFSET   0.245000   0.000000   0.000000
                        CHANNELS 3 Xrotation Yrotation Zrotation
                        JOINT lWrist
                        {
                            OFFSET   0.240000   0.000000   0.000000
                            CHANNELS 3 Xrotation Yrotation Zrotation
                            End Site
                            {
                                OFFSET   0.116353  -0.002500   0.000000
                            }
                        }
                    }
                }
            }
        }
    }
    JOINT rHip
    {
        OFFSET  -0.100000  -0.051395   0.000000
        CHANNELS 3 Xrotation Yrotation Zrotation
        JOINT rKnee
        {
            OFFSET   0.000000  -0.410000   0.000000
            CHANNELS 3 Xrotation Yrotation Zrotation
            JOINT rAnkle
            {
                OFFSET   0.000000  -0.390000   0.000000
                CHANNELS 3 Xrotation Yrotation Zrotation
                JOINT rToeJoint
                {
                    OFFSET   0.000000  -0.050000   0.130000
                    CHANNELS 3 Xrotation Yrotation Zrotation
                    End Site
                    {
                        OFFSET  -0.010000   0.002000   0.060000
                    }
                }
            }
        }
    }
    JOINT lHip
    {
        OFFSET   0.100000  -0.051395   0.000000
        CHANNELS 3 Xrotation Yrotation Zrotation
        JOINT lKnee
        {
            OFFSET   0.000000  -0.410000   0.000000
            CHANNELS 3 Xrotation Yrotation Zrotation
            JOINT lAnkle
            {
                OFFSET   0.000000  -0.390000   0.000000
                CHANNELS 3 Xrotation Yrotation Zrotation
                JOINT lToeJoint
                {
                    OFFSET   0.000000  -0.050000   0.130000
                    CHANNELS 3 Xrotation Yrotation Zrotation
                    End Site
                    {
                        OFFSET   0.010000   0.002000   0.060000
                    }
                }
            }
        }
    }
}
MOTION
Frames: 7
Frame Time:   0.008333
 -2.202672   0.912838   3.913020  -6.170887  -9.728273   1.896990   7.347842   0.691770  -0.170209   6.189590  -1.908657   3.953734   1.967084   2.867139  -0.081923  -0.815908   6.508354  -4.584109   0.174956  27.614179  43.428248 179.997045  67.276371 -179.994649   2.548225   2.627806   1.524375   3.074150  -9.720553  -2.366723  12.919807 -15.450174 -46.591496   0.083106 -70.273531   0.123949   1.985033  -3.854892   3.230542  -6.200459   3.517033  -9.440952  25.508709  -0.005665  -0.031998  -7.244951  -3.036265   2.682733  -8.451291  -0.004231  -0.017763  -3.472097   1.690965  10.105798  25.427571  -0.003588  -0.009642  -5.683788   1.138644  -1.340945  -4.568175   0.006818   0.040991
 -2.203268   0.913118   3.914436  -6.382882  -7.900777   1.684422   7.070986   1.064484  -0.194461   5.991874  -1.816592   3.679403   1.970453   2.488021   0.108011  -0.778694   5.843106  -4.568418   0.442102  26.130527  43.239524 -179.997892  67.598082 -179.997179   2.491269   2.974230   1.353529   3.147806  -8.799834  -2.618019  13.173014 -15.075676 -47.151373   0.097158 -69.582716   0.146586   2.020427  -3.865523   3.067709  -5.299646   2.897059  -9.257312  25.044120  -0.005723  -0.030909  -7.262587  -3.466169   2.669441  -8.710867  -0.003469  -0.016314  -3.618605   1.727901  10.074076  25.373759  -0.003290  -0.008502  -6.115395   0.965910  -1.216759  -4.129127   0.007675   0.038931
 -2.203665   0.913113   3.915872  -6.567620  -6.076769   1.443707   6.800116   1.410949  -0.208409   5.805747  -1.743890   3.442265   1.970361   2.135027   0.278914  -0.699820   5.118103  -4.538227   0.738568  24.661734  43.063130 -179.994064  67.938220 -179.999031   2.441083   3.099764   1.037268   3.211968  -7.866114  -2.808994  13.413771 -14.661375 -47.630966   0.106052 -68.912179   0.161167   2.037681  -3.780357   3.188845  -4.444752   2.306467  -9.021072  24.624027  -0.005735  -0.029576  -7.335933  -3.856295   2.675576  -8.927446  -0.002820  -0.014909  -3.745808   1.764059  10.048659  25.321503  -0.003048  -0.007558  -6.525747   0.803846  -1.101315  -3.774869   0.007999   0.036086
 -2.203790   0.912881   3.917262  -6.726424  -4.273478   1.183511   6.540635   1.724055  -0.208682   5.633819  -1.686814   3.239638   1.970882   1.806374   0.434438  -0.604321   4.398744  -4.507106   1.033333  23.261228  42.903001 -179.991272  68.268543 179.999501   2.394597   3.105650   0.699756   3.278161  -6.965053  -2.954938  13.649266 -14.248094 -48.055196   0.109235 -68.276164   0.167440   2.048589  -3.636394   3.429791  -3.641462   1.755992  -8.747803  24.246879  -0.005701  -0.028021  -7.439793  -4.210173   2.693125  -9.124849  -0.002292  -0.013691  -3.853800   1.801365  10.013236  25.273558  -0.002828  -0.006725  -6.908161   0.652174  -0.994019  -3.449527   0.008168   0.033354
 -2.203620   0.912461   3.918569  -6.859243  -2.498245   0.909014   6.294020   2.006536  -0.194461   5.474566  -1.641727   3.066673   1.972026   1.499748   0.578807  -0.504856   3.708571  -4.474394   1.312770  21.941597  42.761000 -179.989304  68.582021 179.998299   2.350301   3.061828   0.370986   3.345180  -6.113040  -3.076628  13.875772 -13.852743 -48.441553   0.107985 -67.677799   0.167302   2.056274  -3.463577   3.706950  -2.889569   1.244368  -8.448388  23.904690  -0.005633  -0.026349  -7.562467  -4.532858   2.717555  -9.308411  -0.001871  -0.012637  -3.943633   1.840578   9.961933  25.230338  -0.002621  -0.005976  -7.264397   0.510074  -0.894342  -3.149466   0.008219   0.030752
 -2.203153   0.911883   3.919768  -6.966057  -0.753911   0.623413   6.060249   2.261937  -0.167111   5.326278  -1.606085   2.918526   1.973536   1.213514   0.714315  -0.406978   3.056185  -4.438892   1.572261  20.704700  42.636981 -179.987959  68.876764 179.997286   2.307595   3.000048   0.055460   3.411694  -5.315416  -3.187241  14.090881 -13.482672 -48.800861   0.103652 -67.117555   0.162631   2.061960  -3.280955   3.983960  -2.187317   0.769143  -8.130637  23.590762  -0.005545  -0.024652  -7.698172  -4.828423   2.746271  -9.479112  -0.001540  -0.011703  -4.016646   1.881794   9.894035  25.191831  -0.002420  -0.005298  -7.596277   0.376885  -0.801756  -2.872824   0.008171   0.028284
 -2.202399   0.911169   3.920842  -7.047184   0.959013   0.328639   5.838934   2.493283  -0.128973   5.187685  -1.578187   2.790872   1.975245   0.946281   0.842175  -0.312990   2.444023  -4.400089   1.811144  19.548411  42.529731 -179.987071  69.152731 179.996406   2.266242   2.934047  -0.246622   3.476852  -4.572625  -3.294030  14.293569 -13.140431 -49.139456   0.097366 -66.594492   0.154971   2.066347  -3.099544   4.244541  -1.532393   0.327802  -7.800366  23.300185  -0.005443  -0.022991  -7.843545  -5.099977   2.777735  -9.637534  -0.001281  -0.010860  -4.074166   1.924741   9.811337  25.157898  -0.002224  -0.004681  -7.905497   0.252051  -0.715748  -2.617856   0.008037   0.025958
